<svg width="688" height="853" viewBox="0 0 688 853" fill="none" xmlns="http://www.w3.org/2000/svg">
<path d="M133.015 84.3085C212.239 6.05191 369.959 -15.0719 474.886 9.9921C583.314 35.8952 703.554 126.045 686.346 250.745C670.377 255.233 622.944 253.189 615.762 274.824C611.132 288.797 622.47 328.491 586.96 313.825C564.975 304.74 597.132 274.058 595.382 253.992C592.501 221.449 568.293 225.973 562.423 214.079C553.637 196.312 569.496 183.725 587.215 189.198C604.934 194.67 588.71 231.628 631.33 224.769C684.778 216.195 623.272 132.904 604.387 113.605C585.501 94.3049 520.35 46.2929 493.298 46.6213C466.246 46.9496 473.027 86.0962 493.808 96.8587C509.741 105.104 541.459 96.9682 538.798 124.294C537.34 139.362 523.668 147.534 509.595 143.229C494.173 138.523 491.584 111.817 460.631 111.817C424.829 111.817 414.839 155.341 388.698 147.753C379.365 145.053 370.068 130.168 374.151 120.281C382.646 99.6679 435.146 101.565 443.423 61.7983C452.975 16.0118 390.011 22.6153 358.656 24.1841C327.302 25.7529 210.708 37.3181 258.76 91.8605C287.417 124.404 320.375 95.6183 340.865 108.023C357.964 118.384 351.693 151.401 326.682 150.817C303.021 150.27 292.703 130.715 260.802 141.295C225.838 152.897 236.192 184.455 223.614 192.408C211.036 200.362 188.359 197.698 186.354 179.128C182.999 148.665 204.947 153.59 217.562 130.715C231.708 104.922 229.63 67.4897 192.296 76.1727C162.583 83.1045 86.9313 186.243 91.3428 215.758C93.0928 227.359 110.228 231.591 120.546 226.812C131.739 221.631 151.718 170.81 163.749 218.786C159.921 234.328 122.223 225.9 128.056 266.652C129.661 277.852 150.843 301.895 125.322 308.462C99.8011 315.029 115.369 238.523 77.4521 251C67.0614 257.349 54.8478 360.231 59.478 375.7C65.3479 395.182 96.5198 389.491 101.66 372.015C106.327 356.072 92.3636 311.599 129.077 324.076C150.442 331.337 127.109 354.978 125.067 362.749C113.728 405.762 200.135 414.81 165.718 439.984C144.718 455.343 125.504 409.776 96.4834 407.514C67.4624 405.252 79.1292 432.03 76.9781 449.396C75.3375 462.749 58.3478 491.936 88.0251 482.45C100.64 478.437 111.541 451.111 124.484 467.346C137.426 483.581 112.015 485.989 104.03 491.17C85.5094 503.173 101.369 528.383 98.7074 546.041L78.4729 542.611C77.3063 468.185 42.379 505.946 31.1863 549.835C35.2332 556.621 62.7958 557.533 72.4208 577.89C77.8531 589.383 74.9729 599.014 77.7802 608.974C80.0406 616.928 90.4313 623.349 91.4522 632.032C92.5459 641.298 85.9105 648.121 89.2282 659.212C91.3428 666.289 100.093 671.507 103.119 678.365C107.202 687.632 107.348 700.766 112.416 709.157C131.666 741.117 144.718 684.349 138.119 665.122C136.223 659.576 126.744 657.424 122.405 651.733C103.848 627.289 136.296 611.017 151.426 629.989C158.755 639.219 152.374 648.814 157.661 659.941C177.713 702.006 236.375 658.154 239.765 694.272C242.463 723.422 203.89 707.515 191.385 706.494C162.984 704.232 130.937 726.414 164.77 736.921C192.26 745.422 221.5 719.701 248.552 721.853C285.958 724.809 306.776 771.762 340.172 768.479C371.599 765.378 358.839 731.23 367.479 719.008C380.24 700.912 408.24 715.14 402.589 735.826C398.287 751.66 376.412 752.901 378.453 781.248C380.349 807.261 410.829 814.448 414.365 825.794C419.87 843.416 409.771 855.601 391.542 852.5C373.313 849.399 369.375 794.82 326.172 801.496C312.792 803.576 308.052 817.95 291.463 810.435C273.344 802.226 287.271 764.393 258.833 755.6C234.625 748.121 200.645 769.245 173.192 768.844C139.76 768.37 102.9 750.566 86.1292 720.905C82.5198 714.484 60.2072 673.768 59.5145 670.996C56.7801 660.379 60.3895 649.069 58.5666 639.109C56.853 629.916 47.1186 626.669 43.6915 617.219C40.2644 607.77 47.1186 597.518 42.4154 589.711C37.7123 581.904 5.81114 577.051 1.21737 561.619C-7.05871 533.782 29.181 488.652 40.0092 463.406C59.0405 419.115 29.2175 412.074 25.7904 372.818C18.4257 289.089 73.1135 143.265 132.905 84.2355L133.015 84.3085ZM387.021 293.321C371.417 278.837 394.021 253.664 379.511 226.082C366.787 201.931 348.339 212.875 334.849 201.566C316.729 186.425 337.219 164.316 358.11 170.883C371.162 175.006 369.084 201.018 406.125 199.742C435.292 198.72 445.975 157.02 469.673 175.808C504.345 203.28 437.37 214.225 426.251 223.273C396.756 247.279 425.558 269.607 417.099 286.973C412.542 296.276 395.407 301.019 387.058 293.285L387.021 293.321ZM154.197 271.541C143.624 260.887 150.551 236.334 166.921 232.905C189.124 228.271 199.953 256.838 235.317 254.357C274.62 251.584 269.515 218.384 290.588 214.59C313.849 210.395 326.026 237.1 311.406 254.029C299.885 267.381 271.047 253.554 258.651 288.615C246.984 321.632 272.651 334.511 269.807 354.248C267.984 366.944 250.411 378.801 237.031 372.636C207.609 359.064 236.156 309.374 210.234 284.565C193.244 268.294 164.551 281.938 154.197 271.504V271.541ZM450.24 406.127C463.693 391.57 472.553 355.306 460.339 338.341C453.85 329.33 437.261 327.652 436.751 310.869C436.058 288.578 453.048 278.545 473.501 284.966C500.188 293.358 475.871 334.875 506.277 357.896C536.683 380.917 560.053 360.56 590.022 368.841C606.574 373.438 604.861 409.228 583.423 413.935C565.376 417.911 538.98 399.56 508.209 404.048C461.214 410.87 484.292 461.983 448.782 465.048C428.803 466.762 413.527 440.531 425.813 423.53C429.751 418.057 444.808 412.001 450.24 406.091V406.127ZM293.906 342.975C287.562 335.058 277.172 338.414 280.599 318.166C284.026 297.918 311.406 299.45 318.771 316.233C324.568 329.403 315.234 342.683 329.672 356.401C353.844 379.385 379.328 357.714 398.214 364.208C410.428 368.404 415.021 398.466 391.579 400.399C369.813 402.187 360.261 387.886 333.172 396.35C304.625 405.288 319.646 426.12 305.974 438.269C292.302 450.418 268.969 440.422 270.5 424.369C272.286 405.872 326.172 383.325 293.943 342.975H293.906ZM343.344 433.891C351.729 425.901 372.474 428.856 379.037 438.123C390.193 453.847 369.959 482.085 407.037 497.627C433.506 508.718 481.704 485.077 484.037 515.322C487.793 563.844 428.438 526.887 396.756 536.701C368.683 545.384 379.474 577.088 366.313 586.391C350.052 597.956 321.432 587.777 328.469 563.224C332.37 549.579 362.339 538.16 364.38 503.939C366.24 473.001 317.313 458.663 343.344 433.891ZM161.562 484.931C182.963 461.29 200.864 500.655 217.854 504.997C225.145 506.858 242.354 507.113 249.901 506.055C269.734 503.319 279.943 466.653 304.26 491.243C315.672 544.91 246.255 501.713 240.75 559.211C239.036 577.234 258.177 618.022 220.807 611.674C187.447 606.019 222.994 563.735 208.666 536.044C199.078 517.511 135.056 514.191 161.598 484.895L161.562 484.931ZM132.614 520.867C153.942 526.303 126.525 560.999 148.218 574.826C157.551 580.773 180.374 577.672 173.484 597.081C155.656 617.256 145.52 584.202 122.369 585.807C109.463 586.683 99.2178 606.457 87.8427 599.16C64.9833 584.494 108.733 572.746 115.041 564.209C127.181 547.755 110.046 533.782 122.15 523.822C125.176 520.904 128.458 519.846 132.614 520.904V520.867ZM424.209 562.276C457.678 561.984 426.725 623.166 478.86 626.523C495.996 627.617 533.256 609.412 531.433 642.429C529.173 682.926 459.355 628.821 439.74 667.384C433.542 679.569 429.787 722.072 400.73 697.264C380.203 679.752 413.126 664.283 420.308 651.514C439.923 616.453 413.672 605.91 400.693 580.59C400.912 571.433 415.751 562.349 424.209 562.276ZM290.661 691.098C281.036 700.985 258.396 696.279 258.87 679.059C259.307 663.809 300.797 655.746 290.698 621.561C287.672 611.236 260.948 595.694 279.068 582.779C309.365 561.254 307.396 611.856 318.698 622.655C338.86 641.919 379.292 620.138 379.146 646.297C378.964 678.11 342.214 652.462 333.099 651.878C299.411 649.653 300.724 680.7 290.661 691.062V691.098Z" fill="black"/>
</svg>
