<svg width="923" height="923" viewBox="0 0 923 923" fill="none" xmlns="http://www.w3.org/2000/svg">
<path d="M251.015 119.308C330.239 41.0519 487.959 19.9281 592.886 44.9921C701.314 70.8952 821.554 161.045 804.346 285.745C788.377 290.233 740.944 288.189 733.762 309.824C729.132 323.797 740.47 363.491 704.96 348.825C682.975 339.74 715.132 309.058 713.382 288.992C710.501 256.449 686.293 260.973 680.423 249.079C671.637 231.312 687.496 218.725 705.215 224.198C722.934 229.67 706.71 266.628 749.33 259.769C802.778 251.195 741.272 167.904 722.387 148.605C703.501 129.305 638.35 81.2929 611.298 81.6213C584.246 81.9496 591.027 121.096 611.808 131.859C627.741 140.104 659.459 131.968 656.798 159.294C655.34 174.362 641.668 182.534 627.595 178.229C612.173 173.523 609.584 146.817 578.631 146.817C542.829 146.817 532.839 190.341 506.698 182.753C497.365 180.053 488.068 165.168 492.151 155.281C500.646 134.668 553.146 136.565 561.423 96.7983C570.975 51.0118 508.011 57.6153 476.656 59.1841C445.302 60.7529 328.708 72.3181 376.76 126.861C405.417 159.404 438.375 130.618 458.865 143.023C475.964 153.384 469.693 186.401 444.682 185.817C421.021 185.27 410.703 165.715 378.802 176.295C343.838 187.897 354.192 219.455 341.614 227.408C329.036 235.362 306.359 232.698 304.354 214.128C300.999 183.665 322.947 188.59 335.562 165.715C349.708 139.922 347.63 102.49 310.296 111.173C280.583 118.105 204.931 221.243 209.343 250.758C211.093 262.359 228.228 266.591 238.546 261.812C249.739 256.631 269.718 205.81 281.749 253.786C277.921 269.328 240.223 260.9 246.056 301.652C247.661 312.852 268.843 336.895 243.322 343.462C217.801 350.029 233.369 273.523 195.452 286C185.061 292.349 172.848 395.231 177.478 410.7C183.348 430.182 214.52 424.491 219.661 407.015C224.327 391.072 210.364 346.599 247.077 359.076C268.442 366.337 245.109 389.978 243.067 397.749C231.728 440.762 318.135 449.81 283.718 474.984C262.718 490.343 243.504 444.776 214.483 442.514C185.462 440.252 197.129 467.03 194.978 484.396C193.338 497.749 176.348 526.936 206.025 517.45C218.64 513.437 229.541 486.111 242.484 502.346C255.426 518.581 230.015 520.989 222.03 526.17C203.509 538.173 219.369 563.383 216.707 581.041L196.473 577.611C195.306 503.185 160.379 540.946 149.186 584.835C153.233 591.621 180.796 592.533 190.421 612.89C195.853 624.383 192.973 634.014 195.78 643.974C198.041 651.928 208.431 658.349 209.452 667.032C210.546 676.298 203.91 683.121 207.228 694.212C209.343 701.289 218.093 706.507 221.119 713.365C225.202 722.632 225.348 735.766 230.416 744.157C249.666 776.117 262.718 719.349 256.119 700.122C254.223 694.576 244.744 692.424 240.405 686.733C221.848 662.289 254.296 646.017 269.426 664.989C276.755 674.219 270.374 683.814 275.661 694.941C295.713 737.006 354.375 693.154 357.765 729.272C360.463 758.422 321.89 742.515 309.385 741.494C280.984 739.232 248.937 761.414 282.77 771.921C310.26 780.422 339.5 754.701 366.552 756.853C403.958 759.809 424.776 806.762 458.172 803.479C489.599 800.378 476.839 766.23 485.479 754.008C498.24 735.912 526.24 750.141 520.589 770.826C516.287 786.66 494.412 787.901 496.453 816.248C498.349 842.261 528.829 849.448 532.365 860.794C537.87 878.416 527.771 890.601 509.542 887.5C491.313 884.399 487.375 829.82 444.172 836.496C430.792 838.576 426.052 852.95 409.463 845.435C391.344 837.226 405.271 799.393 376.833 790.6C352.625 783.121 318.645 804.245 291.192 803.844C257.76 803.37 220.9 785.566 204.129 755.905C200.52 749.484 178.207 708.768 177.514 705.996C174.78 695.379 178.39 684.069 176.567 674.109C174.853 664.916 165.119 661.669 161.692 652.219C158.264 642.77 165.119 632.518 160.415 624.711C155.712 616.904 123.811 612.051 119.217 596.619C110.941 568.782 147.181 523.652 158.009 498.406C177.041 454.115 147.217 447.074 143.79 407.818C136.426 324.089 191.114 178.265 250.905 119.236L251.015 119.308ZM505.021 328.321C489.417 313.837 512.021 288.664 497.511 261.082C484.787 236.93 466.339 247.875 452.849 236.566C434.729 221.425 455.219 199.316 476.11 205.883C489.162 210.006 487.084 236.018 524.125 234.742C553.292 233.72 563.975 192.02 587.673 210.808C622.345 238.28 555.37 249.225 544.251 258.273C514.756 282.279 543.558 304.607 535.099 321.973C530.542 331.276 513.407 336.019 505.058 328.285L505.021 328.321ZM272.197 306.541C261.624 295.887 268.551 271.334 284.921 267.905C307.124 263.271 317.953 291.838 353.317 289.357C392.62 286.584 387.515 253.384 408.588 249.59C431.849 245.395 444.026 272.1 429.406 289.029C417.885 302.381 389.047 288.554 376.651 323.615C364.984 356.632 390.651 369.511 387.807 389.248C385.984 401.944 368.411 413.801 355.031 407.636C325.609 394.064 354.156 344.374 328.234 319.565C311.244 303.294 282.551 316.938 272.197 306.504V306.541ZM568.24 441.127C581.693 426.57 590.553 390.306 578.339 373.341C571.85 364.33 555.261 362.652 554.751 345.87C554.058 323.578 571.048 313.545 591.501 319.966C618.188 328.358 593.871 369.875 624.277 392.896C654.683 415.917 678.053 395.56 708.022 403.841C724.574 408.438 722.861 444.228 701.423 448.935C683.376 452.911 656.98 434.56 626.209 439.048C579.214 445.87 602.292 496.983 566.782 500.048C546.803 501.762 531.527 475.531 543.813 458.53C547.751 453.057 562.808 447.001 568.24 441.091V441.127ZM411.906 377.975C405.562 370.058 395.172 373.414 398.599 353.166C402.026 332.918 429.406 334.45 436.771 351.233C442.568 364.403 433.234 377.683 447.672 391.401C471.844 414.385 497.328 392.714 516.214 399.208C528.428 403.404 533.021 433.466 509.579 435.399C487.813 437.187 478.261 422.886 451.172 431.35C422.625 440.288 437.646 461.12 423.974 473.269C410.302 485.418 386.969 475.422 388.5 459.369C390.286 440.872 444.172 418.325 411.943 377.975H411.906ZM461.344 468.891C469.729 460.901 490.474 463.856 497.037 473.123C508.193 488.847 487.959 517.085 525.037 532.627C551.506 543.718 599.704 520.077 602.037 550.322C605.793 598.844 546.438 561.887 514.756 571.701C486.683 580.384 497.474 612.088 484.313 621.391C468.052 632.956 439.432 622.777 446.469 598.224C450.37 584.579 480.339 573.16 482.38 538.939C484.24 508.001 435.313 493.663 461.344 468.891ZM279.562 519.931C300.963 496.29 318.864 535.655 335.854 539.997C343.145 541.858 360.354 542.113 367.901 541.055C387.734 538.319 397.943 501.653 422.26 526.243C433.672 579.91 364.255 536.713 358.75 594.211C357.036 612.234 376.177 653.022 338.807 646.674C305.447 641.019 340.994 598.735 326.666 571.044C317.078 552.511 253.057 549.191 279.598 519.895L279.562 519.931ZM250.614 555.867C271.942 561.303 244.525 595.999 266.218 609.826C275.551 615.773 298.374 612.672 291.484 632.081C273.656 652.256 263.52 619.202 240.369 620.807C227.463 621.683 217.218 641.457 205.843 634.16C182.983 619.494 226.734 607.746 233.041 599.209C245.182 582.755 228.046 568.782 240.15 558.822C243.176 555.904 246.458 554.846 250.614 555.904V555.867ZM542.209 597.276C575.678 596.984 544.725 658.166 596.86 661.523C613.996 662.617 651.256 644.412 649.433 677.429C647.173 717.926 577.355 663.821 557.74 702.384C551.542 714.569 547.787 757.072 518.73 732.264C498.203 714.752 531.126 699.283 538.308 686.514C557.923 651.453 531.672 640.91 518.693 615.59C518.912 606.433 533.751 597.349 542.209 597.276ZM408.661 726.098C399.036 735.985 376.396 731.279 376.87 714.059C377.307 698.809 418.797 690.746 408.698 656.561C405.672 646.236 378.948 630.694 397.068 617.779C427.365 596.254 425.396 646.856 436.698 657.655C456.86 676.919 497.292 655.138 497.146 681.297C496.964 713.11 460.214 687.462 451.099 686.878C417.411 684.653 418.724 715.7 408.661 726.062V726.098Z" fill="white"/>
</svg>
