<svg width="267" height="55" viewBox="0 0 267 55" fill="none" xmlns="http://www.w3.org/2000/svg">
<path d="M10.1118 9.87354C13.7473 6.27796 20.9818 5.30589 25.7961 6.46087C30.772 7.65243 36.2853 11.7915 35.4977 17.5194C34.7674 17.7232 32.5872 17.6291 32.2586 18.6273C32.0447 19.2701 32.5663 21.0941 30.939 20.4199C29.9323 20.0018 31.4032 18.5907 31.3249 17.6709C31.1945 16.1763 30.0835 16.3853 29.8123 15.8366C29.4107 15.0213 30.1357 14.4412 30.9494 14.692C31.7631 14.9429 31.0172 16.6414 32.9732 16.3278C35.4246 15.9359 32.6028 12.1051 31.737 11.2219C30.8711 10.3387 27.8824 8.12801 26.641 8.14369C25.3997 8.15937 25.7126 9.95716 26.6619 10.4536C27.3921 10.8299 28.8474 10.4536 28.7274 11.7131C28.6596 12.403 28.0337 12.7793 27.3869 12.5807C26.6775 12.3664 26.5628 11.1383 25.1389 11.1383C23.4958 11.1383 23.0368 13.1399 21.8372 12.7897C21.4095 12.6643 20.9818 11.9797 21.1695 11.5302C21.5607 10.5843 23.9705 10.6679 24.346 8.84399C24.7842 6.74308 21.8946 7.0462 20.455 7.11414C19.0154 7.18208 13.669 7.71515 15.8702 10.2237C17.1846 11.7184 18.6972 10.3962 19.6361 10.9658C20.4184 11.4414 20.1316 12.957 18.9841 12.9308C17.8992 12.9047 17.4245 12.0058 15.9588 12.4918C14.3523 13.0249 14.8322 14.4725 14.2532 14.8384C13.6743 15.2042 12.6363 15.084 12.5424 14.2269C12.3859 12.8263 13.3978 13.0563 13.9768 12.0006C14.6236 10.8142 14.5297 9.09485 12.8189 9.49726C11.4575 9.81606 7.9837 14.5562 8.18712 15.9097C8.26536 16.4428 9.05296 16.6362 9.52761 16.4167C10.0388 16.1763 10.9568 13.8454 11.5097 16.0456C11.3323 16.7616 9.60584 16.3749 9.87186 18.2458C9.94488 18.758 10.915 19.8659 9.74668 20.169C8.57831 20.4722 9.28767 16.955 7.55077 17.5298C7.07612 17.8225 6.5128 22.5469 6.72666 23.2577C6.99788 24.1514 8.42705 23.8901 8.66176 23.0905C8.87562 22.3588 8.23406 20.3154 9.9188 20.8903C10.8994 21.2247 9.83013 22.3118 9.73624 22.6671C9.21465 24.6426 13.1788 25.0607 11.6035 26.2157C10.6386 26.9212 9.75711 24.8255 8.42705 24.7262C7.09699 24.6269 7.62901 25.8551 7.52991 26.6495C7.45689 27.2609 6.6745 28.604 8.03585 28.1703C8.61482 27.9874 9.11555 26.7331 9.71016 27.4752C10.3048 28.2173 9.13642 28.3323 8.7713 28.5675C7.92111 29.1214 8.65133 30.2764 8.52615 31.0865L7.59772 30.9297C7.54556 27.5118 5.94427 29.2469 5.42789 31.2589C5.61567 31.5725 6.87792 31.6143 7.32127 32.5498C7.57164 33.0776 7.43602 33.5218 7.56642 33.9765C7.67074 34.3423 8.14539 34.635 8.19233 35.0374C8.24449 35.4607 7.93675 35.7743 8.08801 36.2865C8.18711 36.6105 8.58874 36.8509 8.72436 37.1645C8.91213 37.5878 8.91734 38.194 9.15206 38.5808C10.0336 40.0493 10.6334 37.4415 10.3309 36.5582C10.2422 36.3022 9.80926 36.2029 9.61106 35.9415C8.76087 34.8179 10.2474 34.0706 10.9411 34.9434C11.2749 35.3667 10.9828 35.8057 11.228 36.3178C12.146 38.2515 14.8374 36.2342 14.9939 37.8961C15.1191 39.234 13.3457 38.5024 12.7719 38.4553C11.4679 38.3508 9.99704 39.3699 11.5514 39.8507C12.8136 40.2427 14.1541 39.0616 15.3955 39.1609C17.1115 39.2967 18.0661 41.4551 19.5995 41.3036C21.0391 41.1625 20.455 39.5946 20.8514 39.0302C21.4356 38.1992 22.7239 38.8525 22.4631 39.8037C22.2649 40.5301 21.2634 40.5876 21.3573 41.8889C21.446 43.0857 22.8439 43.4149 23.0055 43.9375C23.2559 44.7476 22.7969 45.3068 21.9571 45.1657C21.1174 45.0246 20.94 42.516 18.958 42.8244C18.3425 42.9184 18.1287 43.5822 17.3671 43.2372C16.5378 42.861 17.1741 41.1207 15.8702 40.7182C14.7592 40.3733 13.1996 41.3454 11.9426 41.3245C10.4091 41.3036 8.71914 40.4831 7.94718 39.1243C7.78027 38.8316 6.75795 36.9606 6.72666 36.83C6.60148 36.344 6.76839 35.8213 6.68493 35.3667C6.60669 34.9434 6.15812 34.797 6.00164 34.3633C5.84517 33.9295 6.15812 33.4591 5.94427 33.0985C5.73042 32.7379 4.26475 32.5184 4.05611 31.8077C3.67535 30.5273 5.33922 28.4577 5.83474 27.2975C6.70579 25.2645 5.33922 24.9405 5.18275 23.1375C4.84371 19.2911 7.35257 12.5911 10.0961 9.87877L10.1118 9.87354ZM21.7642 19.474C21.0496 18.8102 22.0875 17.65 21.4199 16.3853C20.8357 15.2774 19.9907 15.7791 19.37 15.2565C18.5407 14.5614 19.4796 13.5475 20.4393 13.8454C21.0391 14.0336 20.9453 15.2303 22.6404 15.1729C23.9809 15.1258 24.4712 13.2078 25.5561 14.0754C27.147 15.3349 24.0748 15.8418 23.5636 16.2547C22.2127 17.3574 23.5323 18.3817 23.1464 19.1813C22.9377 19.6098 22.1501 19.8241 21.7694 19.4687L21.7642 19.474ZM11.082 18.4758C10.5969 17.9845 10.915 16.8609 11.6661 16.6989C12.6832 16.4846 13.184 17.7964 14.8061 17.6866C16.6108 17.5612 16.3761 16.0352 17.3411 15.8575C18.4103 15.6641 18.9684 16.8923 18.2956 17.6709C17.7688 18.2824 16.4439 17.65 15.8754 19.2597C15.3381 20.7753 16.5169 21.3658 16.3865 22.2752C16.3031 22.8605 15.4946 23.404 14.8844 23.1218C13.5334 22.4999 14.8426 20.2161 13.6534 19.0768C12.8762 18.3294 11.5566 18.9566 11.082 18.4758ZM24.6642 24.6583C25.2797 23.9894 25.6865 22.3222 25.1284 21.5435C24.8311 21.1307 24.0696 21.0523 24.0487 20.284C24.0174 19.2597 24.7946 18.7998 25.7335 19.0925C26.9592 19.4792 25.843 21.3867 27.2357 22.4424C28.6283 23.4981 29.7028 22.5626 31.0798 22.9441C31.8413 23.1532 31.7631 24.7994 30.7773 25.0137C29.9479 25.1966 28.7378 24.3552 27.3243 24.559C25.1702 24.8726 26.229 27.2191 24.5964 27.3602C23.6784 27.4386 22.9795 26.2314 23.5428 25.4527C23.7253 25.2018 24.4138 24.9248 24.6642 24.6531V24.6583ZM17.4923 21.7578C17.2002 21.392 16.7256 21.5487 16.8821 20.6185C17.0385 19.6882 18.2956 19.7562 18.6346 20.5296C18.9006 21.1359 18.4729 21.7473 19.1353 22.3745C20.2463 23.4302 21.4147 22.4372 22.2805 22.7351C22.8386 22.9285 23.0525 24.3082 21.978 24.397C20.9818 24.4806 20.5436 23.8221 19.297 24.2089C17.9878 24.6217 18.6763 25.5781 18.0504 26.1321C17.4245 26.686 16.35 26.2314 16.423 25.4945C16.5065 24.6426 18.9789 23.6078 17.4975 21.7578H17.4923ZM19.3805 26.0119C19.7665 25.646 20.7158 25.7819 21.0183 26.2052C21.5294 26.9264 20.601 28.2225 22.3014 28.9385C23.5167 29.4455 25.7283 28.3636 25.8326 29.7538C26.0047 31.9854 23.282 30.2869 21.8267 30.7363C20.5384 31.1335 21.0339 32.5916 20.4289 33.0201C19.683 33.5532 18.3686 33.0828 18.692 31.954C18.8693 31.3269 20.2463 30.8042 20.3402 29.2312C20.4237 27.8097 18.1808 27.1512 19.3753 26.0119H19.3805ZM11.421 28.28C12.4016 27.193 13.2257 29.0012 14.0029 29.1998C14.3367 29.2834 15.1295 29.2991 15.4738 29.2469C16.3813 29.1214 16.8508 27.4386 17.967 28.5675C18.4886 31.0342 15.3068 29.0483 15.0513 31.6875C14.973 32.5132 15.8493 34.3894 14.1385 34.0967C12.6102 33.8354 14.2376 31.8965 13.5804 30.6213C13.1422 29.7695 10.2005 29.6179 11.421 28.2696V28.28ZM10.0909 29.9315C11.0715 30.1823 9.80927 31.7763 10.8055 32.4087C11.2332 32.6804 12.2816 32.5393 11.9634 33.433C11.1445 34.358 10.6803 32.8424 9.61628 32.9156C9.02166 32.9574 8.55223 33.8668 8.03064 33.5271C6.98224 32.8529 8.99037 32.3146 9.27724 31.9226C9.83534 31.1649 9.04774 30.5273 9.60585 30.0674C9.74668 29.9315 9.89272 29.8844 10.0857 29.9315H10.0909ZM23.4698 31.8338C25.0032 31.8181 23.5845 34.6298 25.9786 34.7866C26.7662 34.8388 28.4718 34.0026 28.3884 35.5182C28.2841 37.3787 25.0815 34.8911 24.1791 36.6628C23.8923 37.222 23.7201 39.1765 22.3901 38.0372C21.446 37.2324 22.9586 36.5216 23.2872 35.9363C24.1896 34.3267 22.9847 33.8406 22.3848 32.6804C22.3953 32.2623 23.0733 31.8443 23.4645 31.839L23.4698 31.8338ZM17.3463 37.7498C16.9029 38.2045 15.8649 37.9902 15.8858 37.1958C15.9067 36.4955 17.8105 36.1245 17.3463 34.5566C17.2054 34.081 15.9797 33.3703 16.8142 32.7745C18.2069 31.7868 18.113 34.1124 18.6346 34.6089C19.5578 35.4921 21.4147 34.4939 21.4095 35.6959C21.399 37.1592 19.7143 35.9781 19.297 35.952C17.7531 35.8475 17.8105 37.2742 17.3515 37.7498H17.3463Z" fill="white"/>
<path d="M123.917 39.8176H118.501V20.2419H123.917C126.735 20.2419 129.027 21.2286 130.792 23.1958C131.588 24.0796 132.198 25.1147 132.623 26.295C133.048 27.4814 133.263 28.7162 133.263 29.9995C133.263 31.2827 133.048 32.5418 132.623 33.7161C132.198 34.8904 131.588 35.9315 130.792 36.8334C129.9 37.7958 128.871 38.5343 127.71 39.0488C126.549 39.5633 125.287 39.8176 123.917 39.8176ZM119.124 39.188H123.917C125.227 39.188 126.43 38.952 127.519 38.4798C128.608 38.0077 129.541 37.3176 130.319 36.4157C131.073 35.5744 131.654 34.5998 132.06 33.4921C132.467 32.3904 132.671 31.2222 132.671 29.9995C132.671 28.7768 132.467 27.6085 132.06 26.5069C131.654 25.4052 131.073 24.4367 130.319 23.6135C129.523 22.7116 128.59 22.0276 127.507 21.5676C126.424 21.1075 125.227 20.8775 123.917 20.8775H119.124V39.188Z" fill="white"/>
<path d="M141.904 31.7186L149.88 20.2419H150.592L142.197 32.3783V39.8176H141.575V32.3783L133.209 20.2419H133.951L141.898 31.7186H141.904Z" fill="white"/>
<path d="M153.632 21.9309V39.8177H153.01V20L166.97 38.2197V20.2421H167.592V40.1809L153.632 21.9309Z" fill="white"/>
<path d="M179.266 20.0061L187.901 39.8238H187.249L184.747 34.0734H173.492L170.841 39.8238H170.159L179.266 20.0061ZM173.755 33.4621H184.442L179.23 21.477L173.755 33.4621Z" fill="white"/>
<path d="M209.897 39.8177V22.1367L200.551 37.106L191.144 22.1367V39.8177H190.522V20L200.556 35.9619L210.531 20V39.8177H209.909H209.897Z" fill="white"/>
<path d="M215.079 39.8176V20.2419H215.701V39.8176H215.079Z" fill="white"/>
<path d="M228.74 40.0297C226.974 40.0297 225.341 39.5757 223.845 38.6738C222.349 37.7719 221.152 36.5492 220.273 35.0178C219.387 33.4803 218.95 31.8096 218.95 30.0058C218.95 28.202 219.393 26.5253 220.273 24.9939C221.152 23.4625 222.349 22.2458 223.845 21.3499C225.341 20.4541 226.974 20.0122 228.74 20.0122C230.128 20.0122 231.456 20.2906 232.713 20.8536C233.975 21.4165 235.07 22.2216 236.004 23.2627L235.555 23.6864C234.681 22.7058 233.652 21.9371 232.462 21.3984C231.271 20.8596 230.032 20.5872 228.74 20.5872C227.07 20.5872 225.538 21.017 224.138 21.8644C222.738 22.7179 221.625 23.862 220.805 25.2965C219.979 26.7311 219.573 28.3049 219.573 30.0119C219.573 31.7188 219.985 33.2926 220.805 34.7272C221.631 36.1618 222.738 37.2998 224.138 38.1472C225.538 38.9886 227.07 39.4123 228.74 39.4123C230.128 39.4123 231.444 39.1096 232.683 38.4922C233.922 37.8809 234.993 37.0334 235.884 35.9499L236.393 36.3131C235.459 37.4995 234.328 38.4196 233 39.0673C231.672 39.721 230.254 40.0479 228.746 40.0479L228.74 40.0297Z" fill="white"/>
<path d="M39.006 34.3943V20.4844H45.4924C46.3959 20.4844 47.2277 20.6478 47.9816 20.9686C48.7296 21.2834 49.4297 21.7616 50.0819 22.4153C50.7162 23.0509 51.2009 23.753 51.524 24.5278C51.8352 25.3026 51.9907 26.144 51.9907 27.0459C51.9907 27.9478 51.8352 28.8013 51.524 29.564C51.2069 30.3206 50.7282 31.0228 50.0939 31.6644C49.4476 32.306 48.7416 32.7903 47.9756 33.1111C47.2097 33.4258 46.378 33.5832 45.4864 33.5832H41.567V39.8684H41.4087H40.4087H39V34.3883L39.006 34.3943ZM41.573 31.0107H42.3748L45.4984 31.0228C46.0489 31.0228 46.5515 30.9259 47.0063 30.7383C47.455 30.5567 47.8799 30.2661 48.2808 29.8666C48.6518 29.4732 48.933 29.0434 49.1305 28.5773C49.328 28.1354 49.4297 27.627 49.4297 27.052C49.4297 26.4769 49.328 25.9927 49.1305 25.5387C48.957 25.1029 48.6757 24.6731 48.2808 24.2494C47.9038 23.8559 47.479 23.5593 47.0182 23.3596C46.5515 23.1598 46.0489 23.0569 45.4984 23.0569H41.579V31.0167L41.573 31.0107Z" fill="white"/>
<path d="M67.849 39.8844H65.1025L63.6843 36.6883H55.5285L54.1103 39.8844H51.3638L59.6094 20.2966L67.855 39.8844H67.849ZM59.5974 34.6H62.7389C62.2123 33.3834 61.6917 32.0698 61.1711 30.6716C60.6506 29.2733 60.13 27.9598 59.6154 26.731C59.0888 27.9598 58.5622 29.2733 58.0357 30.6716C57.5091 32.0698 56.9825 33.3834 56.4679 34.6H59.5974Z" fill="white"/>
<path d="M69.6503 20.4783H75.634C76.5914 20.4783 77.489 20.6478 78.3447 20.9867C79.1525 21.3075 79.8765 21.7736 80.5108 22.385C81.163 23.0569 81.6178 23.6924 81.8811 24.3038C82.1563 24.9394 82.2939 25.7021 82.2939 26.5858V27.1366C82.2939 27.8085 82.1922 28.4259 81.9948 28.9889C81.8033 29.5276 81.5101 30.0905 81.1151 30.6716C80.7801 31.1438 80.4629 31.4827 80.1577 31.7007C79.8765 31.9186 79.4816 32.1244 78.973 32.3302L78.0694 32.6934L78.596 33.5287L82.647 39.8844H79.4457L75.0716 33.0868H72.2353V39.8844H69.6563L69.6443 20.4783H69.6503ZM76.023 30.49L76.0349 30.5021C76.5615 30.5021 77.0223 30.4174 77.4172 30.2419C77.7702 30.0784 78.1352 29.8 78.5122 29.4186C78.9012 29.0252 79.1764 28.6075 79.338 28.1657C79.4995 27.7662 79.5833 27.2819 79.5833 26.719C79.5833 26.2045 79.4995 25.7384 79.338 25.3086C79.1824 24.9454 78.9131 24.552 78.5242 24.1343V24.1222C78.1711 23.7772 77.7044 23.5048 77.13 23.3111C76.5854 23.1295 76.005 23.0387 75.3767 23.0387H72.2293V30.4779H73.0311L74.0005 30.49H76.023Z" fill="white"/>
<path d="M101.167 39.8844H98.4208L97.0027 36.6883H88.8468L87.4287 39.8844H84.6821L92.9277 20.2966L101.173 39.8844H101.167ZM92.9218 34.6H96.0632C95.5367 33.3834 95.0161 32.0698 94.4955 30.6716C93.9749 29.2733 93.4543 27.9598 92.9397 26.731C92.4131 27.9598 91.8866 29.2733 91.36 30.6716C90.8334 32.0698 90.3069 33.3834 89.7923 34.6H92.9218Z" fill="white"/>
<path d="M106.536 20.4783V37.3239H114.909V38.4375L114.883 39.8844H103.969V20.4783H106.536Z" fill="white"/>
</svg>
