<svg width="567" height="92" viewBox="0 0 567 92" fill="none" xmlns="http://www.w3.org/2000/svg">
<path d="M35.536 72.96C30.544 72.96 25.936 72.096 21.712 70.368C17.488 68.576 13.808 66.08 10.672 62.88C7.6 59.68 5.2 55.904 3.472 51.552C1.744 47.136 0.88 42.336 0.88 37.152C0.88 31.968 1.712 27.232 3.376 22.944C5.104 18.656 7.504 14.944 10.576 11.808C13.712 8.608 17.392 6.176 21.616 4.512C25.84 2.784 30.48 1.92 35.536 1.92C41.232 1.92 46.352 3.04 50.896 5.27999C55.504 7.456 59.248 10.56 62.128 14.592C65.072 18.56 66.864 23.232 67.504 28.608H53.104C52.272 23.68 50.256 19.968 47.056 17.472C43.856 14.912 40.048 13.632 35.632 13.632C31.728 13.632 28.272 14.56 25.264 16.416C22.32 18.272 20.016 20.96 18.352 24.48C16.688 27.936 15.856 32.128 15.856 37.056C15.856 42.048 16.688 46.368 18.352 50.016C20.08 53.6 22.448 56.384 25.456 58.368C28.464 60.288 31.92 61.248 35.824 61.248C39.984 61.248 43.664 60 46.864 57.504C50.064 55.008 52.144 51.296 53.104 46.368H67.696C66.864 51.744 64.976 56.448 62.032 60.48C59.088 64.448 55.344 67.52 50.8 69.696C46.256 71.872 41.168 72.96 35.536 72.96ZM93.0445 72.96C87.6685 72.96 82.9325 71.904 78.8365 69.792C74.8045 67.616 71.6365 64.608 69.3325 60.768C67.0925 56.864 65.9725 52.384 65.9725 47.328C65.9725 42.272 67.0925 37.856 69.3325 34.08C71.6365 30.304 74.8045 27.36 78.8365 25.248C82.9325 23.136 87.6685 22.08 93.0445 22.08C98.4845 22.08 103.22 23.136 107.252 25.248C111.348 27.36 114.516 30.304 116.757 34.08C118.997 37.856 120.117 42.272 120.117 47.328C120.117 52.384 118.965 56.864 116.661 60.768C114.42 64.608 111.252 67.616 107.157 69.792C103.124 71.904 98.4205 72.96 93.0445 72.96ZM93.0445 61.632C95.2845 61.632 97.3005 61.056 99.0925 59.904C100.948 58.752 102.42 57.12 103.508 55.008C104.597 52.832 105.141 50.24 105.141 47.232C105.141 42.816 103.957 39.424 101.589 37.056C99.2845 34.624 96.4365 33.408 93.0445 33.408C89.6525 33.408 86.7725 34.624 84.4045 37.056C82.1005 39.488 80.9485 42.88 80.9485 47.232C80.9485 50.24 81.4925 52.832 82.5805 55.008C83.6685 57.12 85.1085 58.752 86.9005 59.904C88.7565 61.056 90.8045 61.632 93.0445 61.632ZM121.99 72V23.04H136.102V34.56H136.39V72H121.99ZM136.39 46.464L135.142 34.848C136.294 30.688 138.182 27.52 140.806 25.344C143.43 23.168 146.694 22.08 150.598 22.08C151.814 22.08 152.71 22.208 153.286 22.464V35.904C152.966 35.776 152.518 35.712 151.942 35.712C151.366 35.648 150.662 35.616 149.83 35.616C145.222 35.616 141.83 36.448 139.654 38.112C137.478 39.712 136.39 42.496 136.39 46.464ZM176.77 72.96C171.33 72.96 166.594 71.904 162.562 69.792C158.53 67.616 155.394 64.608 153.154 60.768C150.978 56.928 149.89 52.512 149.89 47.52C149.89 42.464 150.978 38.048 153.154 34.272C155.394 30.432 158.498 27.456 162.466 25.344C166.434 23.168 171.042 22.08 176.29 22.08C181.346 22.08 185.73 23.104 189.442 25.152C193.154 27.2 196.034 30.048 198.082 33.696C200.13 37.344 201.154 41.632 201.154 46.56C201.154 47.584 201.122 48.544 201.058 49.44C200.994 50.272 200.898 51.072 200.77 51.84H158.338V42.336H189.154L186.658 44.064C186.658 40.096 185.698 37.184 183.778 35.328C181.922 33.408 179.362 32.448 176.098 32.448C172.322 32.448 169.378 33.728 167.266 36.288C165.218 38.848 164.194 42.688 164.194 47.808C164.194 52.8 165.218 56.512 167.266 58.944C169.378 61.376 172.514 62.592 176.674 62.592C178.978 62.592 180.962 62.208 182.626 61.44C184.29 60.672 185.538 59.424 186.37 57.696H199.906C198.306 62.432 195.554 66.176 191.65 68.928C187.81 71.616 182.85 72.96 176.77 72.96ZM234.683 72.96C229.691 72.96 225.083 72.096 220.859 70.368C216.635 68.576 212.955 66.08 209.819 62.88C206.747 59.68 204.347 55.904 202.619 51.552C200.891 47.136 200.027 42.336 200.027 37.152C200.027 31.968 200.859 27.232 202.523 22.944C204.251 18.656 206.651 14.944 209.723 11.808C212.859 8.608 216.539 6.176 220.763 4.512C224.987 2.784 229.627 1.92 234.683 1.92C240.379 1.92 245.499 3.04 250.043 5.27999C254.651 7.456 258.395 10.56 261.275 14.592C264.219 18.56 266.011 23.232 266.651 28.608H252.251C251.419 23.68 249.403 19.968 246.203 17.472C243.003 14.912 239.195 13.632 234.779 13.632C230.875 13.632 227.419 14.56 224.411 16.416C221.467 18.272 219.163 20.96 217.499 24.48C215.835 27.936 215.003 32.128 215.003 37.056C215.003 42.048 215.835 46.368 217.499 50.016C219.227 53.6 221.595 56.384 224.603 58.368C227.611 60.288 231.067 61.248 234.971 61.248C239.131 61.248 242.811 60 246.011 57.504C249.211 55.008 251.291 51.296 252.251 46.368H266.843C266.011 51.744 264.123 56.448 261.179 60.48C258.235 64.448 254.491 67.52 249.947 69.696C245.403 71.872 240.315 72.96 234.683 72.96ZM297.995 72C297.611 70.592 297.323 69.088 297.131 67.488C297.003 65.888 296.939 64.032 296.939 61.92H296.555V38.784C296.555 36.8 295.883 35.264 294.539 34.176C293.259 33.024 291.339 32.448 288.779 32.448C286.347 32.448 284.395 32.864 282.923 33.696C281.515 34.528 280.587 35.744 280.139 37.344H266.411C267.051 32.928 269.323 29.28 273.227 26.4C277.131 23.52 282.475 22.08 289.259 22.08C296.299 22.08 301.675 23.648 305.387 26.784C309.099 29.92 310.955 34.432 310.955 40.32V61.92C310.955 63.52 311.051 65.152 311.243 66.816C311.499 68.416 311.883 70.144 312.395 72H297.995ZM280.907 72.96C276.043 72.96 272.171 71.744 269.291 69.312C266.411 66.816 264.971 63.52 264.971 59.424C264.971 54.88 266.667 51.232 270.059 48.48C273.515 45.664 278.315 43.84 284.459 43.008L298.763 40.992V49.344L286.859 51.168C284.299 51.552 282.411 52.256 281.195 53.28C279.979 54.304 279.371 55.712 279.371 57.504C279.371 59.104 279.947 60.32 281.099 61.152C282.251 61.984 283.787 62.4 285.707 62.4C288.715 62.4 291.275 61.6 293.387 60C295.499 58.336 296.555 56.416 296.555 54.24L297.899 61.92C296.491 65.568 294.347 68.32 291.467 70.176C288.587 72.032 285.067 72.96 280.907 72.96ZM346.119 72.96C341.447 72.96 337.703 71.872 334.887 69.696C332.071 67.52 330.407 64.544 329.895 60.768L330.663 60.672V91.68H316.263V23.04H330.375V33.888L329.511 33.696C330.215 30.112 332.135 27.296 335.271 25.248C338.407 23.136 342.279 22.08 346.887 22.08C351.303 22.08 355.111 23.136 358.311 25.248C361.575 27.296 364.071 30.208 365.799 33.984C367.591 37.76 368.487 42.208 368.487 47.328C368.487 52.512 367.559 57.024 365.703 60.864C363.847 64.704 361.255 67.68 357.927 69.792C354.599 71.904 350.663 72.96 346.119 72.96ZM342.087 61.44C345.479 61.44 348.231 60.224 350.343 57.792C352.455 55.36 353.511 51.904 353.511 47.424C353.511 42.944 352.423 39.52 350.247 37.152C348.135 34.784 345.351 33.6 341.895 33.6C338.567 33.6 335.815 34.816 333.639 37.248C331.527 39.616 330.471 43.04 330.471 47.52C330.471 52 331.527 55.456 333.639 57.888C335.815 60.256 338.631 61.44 342.087 61.44ZM401.412 72C401.028 70.592 400.74 69.088 400.548 67.488C400.42 65.888 400.356 64.032 400.356 61.92H399.972V38.784C399.972 36.8 399.3 35.264 397.956 34.176C396.676 33.024 394.756 32.448 392.196 32.448C389.764 32.448 387.812 32.864 386.34 33.696C384.932 34.528 384.004 35.744 383.556 37.344H369.828C370.468 32.928 372.74 29.28 376.644 26.4C380.548 23.52 385.892 22.08 392.676 22.08C399.716 22.08 405.092 23.648 408.804 26.784C412.516 29.92 414.372 34.432 414.372 40.32V61.92C414.372 63.52 414.468 65.152 414.66 66.816C414.916 68.416 415.3 70.144 415.812 72H401.412ZM384.324 72.96C379.46 72.96 375.588 71.744 372.708 69.312C369.828 66.816 368.388 63.52 368.388 59.424C368.388 54.88 370.084 51.232 373.476 48.48C376.932 45.664 381.732 43.84 387.876 43.008L402.18 40.992V49.344L390.276 51.168C387.716 51.552 385.828 52.256 384.612 53.28C383.396 54.304 382.788 55.712 382.788 57.504C382.788 59.104 383.364 60.32 384.516 61.152C385.668 61.984 387.204 62.4 389.124 62.4C392.132 62.4 394.692 61.6 396.804 60C398.916 58.336 399.972 56.416 399.972 54.24L401.316 61.92C399.908 65.568 397.764 68.32 394.884 70.176C392.004 72.032 388.484 72.96 384.324 72.96ZM440.731 72.96C435.611 72.96 431.099 71.872 427.195 69.696C423.291 67.52 420.219 64.512 417.979 60.672C415.803 56.832 414.715 52.448 414.715 47.52C414.715 42.592 415.803 38.208 417.979 34.368C420.219 30.528 423.291 27.52 427.195 25.344C431.099 23.168 435.611 22.08 440.731 22.08C445.019 22.08 448.859 22.88 452.251 24.48C455.707 26.016 458.523 28.16 460.699 30.912C462.939 33.664 464.379 36.896 465.019 40.608H451.099C450.395 38.24 449.115 36.448 447.259 35.232C445.467 34.016 443.355 33.408 440.923 33.408C438.619 33.408 436.603 33.984 434.875 35.136C433.211 36.288 431.931 37.92 431.035 40.032C430.139 42.144 429.691 44.64 429.691 47.52C429.691 50.4 430.139 52.896 431.035 55.008C431.931 57.12 433.211 58.752 434.875 59.904C436.603 61.056 438.619 61.632 440.923 61.632C443.355 61.632 445.467 61.024 447.259 59.808C449.115 58.592 450.395 56.8 451.099 54.432H465.019C464.379 58.144 462.939 61.376 460.699 64.128C458.523 66.88 455.707 69.056 452.251 70.656C448.859 72.192 445.019 72.96 440.731 72.96ZM465.764 72V23.04H480.164V72H465.764ZM465.284 16.512V0.959999H480.644V16.512H465.284ZM508.361 73.056C502.089 73.056 497.417 71.552 494.345 68.544C491.337 65.472 489.833 60.832 489.833 54.624V12.096L504.233 6.72V55.104C504.233 57.28 504.841 58.912 506.057 60C507.273 61.088 509.161 61.632 511.721 61.632C512.681 61.632 513.577 61.536 514.409 61.344C515.241 61.152 516.073 60.928 516.905 60.672V71.616C516.073 72.064 514.889 72.416 513.353 72.672C511.881 72.928 510.217 73.056 508.361 73.056ZM480.713 33.984V23.04H516.905V33.984H480.713ZM522.271 91.68L535.807 61.728L538.303 57.6L550.975 23.04H566.335L536.671 91.68H522.271ZM532.639 71.04L513.823 23.04H529.375L544.831 66.816L532.639 71.04Z" fill="white"/>
</svg>
