<?xml version="1.0" encoding="UTF-8"?>
<svg id="Layer_1" data-name="Layer 1" xmlns="http://www.w3.org/2000/svg" viewBox="0 0 387.54 92.85">
  <defs>
    <style>
      .cls-1 {
        fill: #fff;
      }
    </style>
  </defs>
  <path class="cls-1" d="M221.26,91.15c-6.46,0-12.42,0-18.64,0V1.89c.67-.17,1.28-.48,1.9-.47,15.64.21,31.3-.04,46.9.81,22.65,1.24,40.19,19.09,40.97,40.72.91,25.14-13.91,44.11-37.77,47.04-10.84,1.33-21.9.83-33.36,1.16M270.07,56.11c4.51-18.2-2.28-32.48-18.48-36.06-9.06-2-18.67-1.49-28.13-2.12v56.12c7.75,0,15.26.55,22.65-.13,10.99-1.01,19.53-6.16,23.96-17.8Z"/>
  <path class="cls-1" d="M308.25,73.14V2.42c.49-.44.74-.86.97-.85,16.94.45,34-.19,50.77,1.76,14.73,1.72,23.46,11.66,25.42,24.41,2.38,15.45-2.53,25.78-16.09,33.91-.42.25-.78.62-1.42,1.14,6.35,9.14,12.7,18.28,19.65,28.29-7.65,0-14.66.13-21.65-.14-1.04-.04-2.14-1.87-2.97-3.05-4.39-6.27-8.57-12.7-13.14-18.84-1.07-1.43-3.32-2.63-5.11-2.76-4.95-.37-9.94-.13-15.46-.13v24.69h-20.96v-17.7M333,49.84c6.29-.23,12.62-.15,18.87-.78,7.66-.77,12.5-6.22,13.1-13.93.59-7.57-3.66-14.49-10.95-15.62-8.08-1.26-16.37-1.22-24.97-1.77,0,10.48-.08,19.92.13,29.35.02.94,1.87,1.83,3.82,2.75Z"/>
  <path class="cls-1" d="M81.21,84.01c-17.78,9.65-35.86,11.98-54.42,4.09C7.94,80.09-2.25,60.83.42,39.5,2.8,20.5,18.16,4.45,37.41,1.18c17.52-2.98,33.82-.78,47.37,12.05.59.56,1.09,1.23,2,2.26-4.28,4.01-8.46,7.93-12.87,12.06-2.35-1.78-4.47-3.58-6.78-5.09-14.1-9.23-42.4-6.25-45.72,19.61-1.43,11.16,1.69,21.05,11.24,27.7,9.63,6.71,20.26,6.78,30.9,2.51,1.29-.52,2.53-2.89,2.59-4.45.27-7.31.12-14.65.12-22.37h19.03c0,10.44-.16,21.04.09,31.63.08,3.32-.96,5.39-4.16,6.91Z"/>
  <path class="cls-1" d="M124.54,19.39c.64-1.4,1.12-2.46,1.6-3.53,6.86-15.39,6.86-15.44,23.87-14.38,1.43.09,3.49,1.32,4.05,2.56,12.81,28.32,25.46,56.72,38.12,85.11.19.42.14.94.27,1.97-6.57,0-12.99.12-19.39-.13-1-.04-2.31-1.58-2.84-2.72-2.03-4.37-3.59-8.96-5.79-13.24-.69-1.35-2.79-2.79-4.27-2.82-11.65-.23-23.31-.05-34.96-.19-2.57-.03-3.86.78-4.76,3.16-2.01,5.28-4.3,10.45-6.52,15.78h-21.25c10.67-23.98,21.18-47.61,31.85-71.58M139.33,29.77c-3.51,8.63-7.03,17.27-10.6,26.04h27.91c-4.68-11.32-9.17-22.16-13.94-33.71-1.22,2.78-2.15,4.88-3.37,7.67Z"/>
</svg>