<svg width="388" height="94" viewBox="0 0 388 94" fill="none" xmlns="http://www.w3.org/2000/svg">
<path d="M221.26 91.1502C214.8 91.1502 208.84 91.1502 202.62 91.1502V1.89016C203.29 1.72016 203.9 1.41016 204.52 1.42016C220.16 1.63016 235.82 1.38016 251.42 2.23016C274.07 3.47016 291.61 21.3202 292.39 42.9502C293.3 68.0902 278.48 87.0602 254.62 89.9902C243.78 91.3202 232.72 90.8202 221.26 91.1502ZM270.07 56.1102C274.58 37.9102 267.79 23.6302 251.59 20.0502C242.53 18.0502 232.92 18.5602 223.46 17.9302V74.0502C231.21 74.0502 238.72 74.6002 246.11 73.9202C257.1 72.9102 265.64 67.7602 270.07 56.1202V56.1102Z" fill="#00CA7F"/>
<path d="M308.25 73.14V2.42C308.74 1.98 308.99 1.56 309.22 1.57C326.16 2.02 343.22 1.38 359.99 3.33C374.72 5.05 383.45 14.99 385.41 27.74C387.79 43.19 382.88 53.52 369.32 61.65C368.9 61.9 368.54 62.27 367.9 62.79C374.25 71.93 380.6 81.07 387.55 91.08C379.9 91.08 372.89 91.21 365.9 90.94C364.86 90.9 363.76 89.07 362.93 87.89C358.54 81.62 355.07 75.14 350.5 69L348.5 66.16C348.5 66.16 334.74 66.16 329.22 66.16V90.85H308.26V73.15M333 49.84C339.29 49.61 345.62 49.69 351.87 49.06C359.53 48.29 364.37 42.84 364.97 35.13C365.56 27.56 361.31 20.64 354.02 19.51C345.94 18.25 337.65 18.29 329.05 17.74C329.05 28.22 329.01 39.63 329.22 49.06C329.24 50 333 49.84 333 49.84Z" fill="#00CA7F"/>
<path d="M79 85.5C61.22 95.15 45.3501 95.9898 26.7901 88.0998C7.94009 80.0898 -2.24991 60.8299 0.420094 39.4999C2.80009 20.4999 18.1601 4.44985 37.4101 1.17985C54.9301 -1.80015 71.2301 0.399849 84.7801 13.2298C85.3701 13.7898 85.8701 14.4598 86.7801 15.4898C82.5001 19.4998 78.3201 23.4198 73.9101 27.5498C71.5601 25.7698 69.4401 23.9698 67.1301 22.4598C53.0301 13.2298 24.7301 16.2099 21.4101 42.0699C19.9801 53.2299 23.1001 63.1198 32.6501 69.7698C42.2801 76.4798 66 72 66 72V68C66 68 66 53.1799 66 45.4599H85.2901C85.2901 55.8998 85.1301 66.4998 85.3801 77.0898C85.4601 80.4098 85 82.5 85 82.5L79 85.5Z" fill="#00CA7F"/>
<path d="M124.54 19.3902C125.18 17.9902 125.66 16.9302 126.14 15.8602C129.265 8.85012 132.66 1.76735 133 1.50023C133.679 0.967377 148.821 1.3312 151.5 1.50006C152.93 1.59006 153.5 2.80021 154.06 4.04021C166.87 32.3602 179.52 60.7602 192.18 89.1502C192.37 89.5702 193.016 91 193 91C186.43 91 178.4 91.25 172 91L170.5 88C170.5 88 165.7 76.4902 163.5 72.2102H160.16C148.51 71.9802 136.85 72.1602 125.2 72.0202C122.63 71.9902 121.5 72.0202 121.5 72.0202C119.49 77.3002 116.14 85.6302 113.92 90.9602H92.6699C103.34 66.9802 113.85 43.3502 124.52 19.3802M139.33 29.7702C135.82 38.4002 132.3 47.0402 128.73 55.8102H156.64C151.96 44.4902 147.47 33.6502 142.7 22.1002C141.48 24.8802 140.55 26.9802 139.33 29.7702Z" fill="#00CA7F"/>
</svg>
