<svg width="596" height="97" viewBox="0 0 596 97" fill="none" xmlns="http://www.w3.org/2000/svg">
<g clip-path="url(#clip0_113_181)">
<rect x="4" y="3" width="57" height="76" fill="white"/>
<path d="M62.91 0C63.1 27.04 63.1 54.08 63.1 81.39C42.1 81.39 21.24 81.39 0.19 81.37C0 54.27 0 27.18 0 0H62.91ZM20.32 49.55C21.75 52.21 23.27 52.64 25.96 51.2C26.28 51.03 26.72 50.82 27.03 50.91C32.15 52.38 37.27 53.89 42.39 55.39C42.34 56.43 42.31 57.28 42.27 58.1C42.03 58.23 41.86 58.34 41.68 58.4C32.11 61.66 22.55 64.93 12.96 68.11C12.38 68.3 11.49 67.99 10.9 67.64C9.26 66.67 7.43 66.65 6.12 67.86C4.77 69.1 4.35 70.64 5.09 72.36C5.82 74.07 7.17 74.88 9.04 74.71C10.81 74.55 12.17 73.27 12.36 71.34C12.46 70.33 12.8 69.86 13.75 69.54C23.02 66.44 32.28 63.3 41.53 60.14C42.47 59.82 43.05 59.86 43.7 60.73C45.01 62.46 46.9 63.24 49.03 63.41C52.6 63.69 55.96 61.31 56.63 58.07C57.23 55.14 55.33 52.06 52.15 51.02C49.15 50.04 46.33 50.49 44.11 52.81C43.2 53.77 42.45 53.77 41.36 53.44C37.44 52.25 33.51 51.09 29.57 49.99C28.18 49.6 26.94 47.44 26.94 47.44C26.94 47.44 26.17 46.41 25.89 45.83C25.56 45.15 25.07 44.35 25.18 43.69C25.71 40.23 26.46 36.81 27.02 33.35C27.22 32.11 27.77 31.76 28.98 31.79C32.02 31.87 35.06 31.85 38.1 31.79C39.29 31.77 40.1 31.92 40.72 33.21C41.72 35.27 44.36 36.01 46.58 35.19C48.58 34.44 49.8 32.43 49.4 30.51C48.96 28.36 47.06 27.07 44.54 26.94C43.76 26.9 42.77 26.49 42.28 25.91C39.52 22.62 36.9 19.21 34.18 15.89C33.38 14.91 32.95 14.15 33.56 12.77C34.3 11.09 33.25 9.1 31.62 8.27C29.97 7.42 27.95 7.9 26.83 9.41C25.75 10.86 25.61 13.33 27.06 14.29C28.94 15.53 28.5 16.93 28.19 18.55C27.43 22.42 26.73 26.29 25.99 30.21C22.66 30.21 19.56 30.25 16.45 30.17C15.93 30.16 15.3 29.69 14.93 29.25C13.77 27.88 12.38 27.33 10.7 28.01C9.05 28.68 8.27 30.06 8.45 31.82C8.64 33.56 9.64 34.77 11.43 35.07C13.22 35.37 14.45 34.52 15.3 32.96C15.54 32.51 16.02 31.88 16.41 31.87C19.42 31.78 22.44 31.82 25.46 31.82C25.49 32.27 25.55 32.47 25.52 32.65C24.86 36.29 24.24 39.94 23.47 43.56C23.32 44.25 22.72 45 22.11 45.41C20.69 46.36 20 47.55 20.32 49.56V49.55Z" fill="#FD8523"/>
<path d="M165.67 96.4298C165.34 96.1798 165.25 95.7798 165.05 95.7198C163.49 95.2298 161.2 95.2598 160.51 94.2298C159.67 92.9698 160.17 90.8198 160.12 89.0598C160.09 87.8898 160.12 86.7198 160.12 85.9698C165.18 86.4398 170.06 87.1298 174.96 87.2598C177.46 87.3298 180.1 86.6998 182.48 85.8498C186.58 84.3898 188.87 81.2998 188.99 76.8298C189.04 74.8798 188.99 72.9398 188.99 70.7598C188.43 71.0798 188.04 71.2698 187.67 71.5098C174.81 79.7198 159.88 72.7198 157.96 57.5698C157.17 51.3098 157.48 45.1898 160.04 39.3098C163.93 30.3598 173.34 25.4698 182.01 28.2998C184.85 29.2298 187.33 31.2698 189.99 32.8198C190.12 31.7798 190.31 30.2698 190.5 28.6698H200.16V30.9498C200.16 45.7598 200.16 60.5598 200.16 75.3698C200.16 86.2098 194.97 92.8098 184.42 95.4498C183.68 95.6298 182.99 95.9698 182.42 96.3498C177 96.4598 171.44 96.4598 165.69 96.4598M172.04 62.6698C173.43 63.6298 174.7 64.9198 176.23 65.4898C180.07 66.9298 185.92 65.1798 188.52 61.9898C188.96 61.4598 189.1 60.5598 189.11 59.8198C189.16 54.8598 188.87 49.8898 189.23 44.9598C189.46 41.7598 188.05 40.0198 185.63 38.5898C184.89 38.1598 184.14 37.7298 183.34 37.4198C178.86 35.6498 174.19 36.9698 171.74 40.6698C168.08 46.1998 168.14 56.8398 172.03 62.6598L172.04 62.6698Z" fill="#FD8523"/>
<path d="M595.28 64.4998C595.03 64.8098 594.64 64.8798 594.56 65.0698C592.25 70.9998 587.39 73.4498 581.57 74.4598C575.68 75.4798 569.86 74.9998 564.13 73.2798C562.78 72.8698 562.22 72.1998 562.3 70.7498C562.42 68.5198 562.33 66.2698 562.33 63.7198C563.35 63.9798 564.15 64.1498 564.93 64.3798C569.48 65.7498 574.11 66.3298 578.81 65.4698C580.13 65.2298 581.5 64.6598 582.6 63.8898C585.02 62.1798 584.92 58.9898 582.39 57.4698C580.94 56.5998 579.26 56.0998 577.64 55.5698C575.51 54.8698 573.31 54.3898 571.18 53.6698C562.33 50.6498 559.43 41.0698 565.08 33.4998C568.18 29.3498 572.64 27.8998 577.55 27.5798C582.47 27.2598 587.29 27.9998 592.03 29.3898C593.23 29.7398 593.73 30.3298 593.68 31.6198C593.58 33.9798 593.65 36.3498 593.65 38.9798C592.12 38.5898 590.88 38.1298 589.6 37.9798C585.69 37.5198 581.78 37.1098 577.85 36.8398C577.01 36.7798 576.04 37.2498 575.26 37.6998C572.6 39.2198 572.49 42.7498 575.1 44.3698C576.26 45.0898 577.62 45.5098 578.93 45.9398C580.18 46.3498 581.48 46.6198 582.77 46.8998C588.01 48.0098 592.48 50.2198 595.13 55.2298C595.27 58.2198 595.27 61.2698 595.27 64.4998H595.28Z" fill="#757693"/>
<path d="M495.61 41.6901C495.18 42.7601 494.59 43.7101 494.58 44.6701C494.51 53.5301 494.54 62.3901 494.54 71.2501V73.6901H483.68V28.5801C486.42 28.5801 489.05 28.5301 491.68 28.6301C492.1 28.6501 492.73 29.3101 492.85 29.7801C493.23 31.2401 493.42 32.7501 493.75 34.6701C497.76 30.0801 502.51 27.5801 508.36 27.5201C514.39 27.4601 519.11 29.8101 522 35.3201C523.39 33.9701 524.55 32.5801 525.95 31.5301C531.74 27.1701 538.11 26.1001 544.79 29.0901C549.73 31.3001 552.17 35.6101 552.28 40.8301C552.52 51.6001 552.37 62.3801 552.38 73.1501C552.38 73.2701 552.29 73.3901 552.17 73.6501H541.38C541.38 72.7901 541.38 72.0101 541.38 71.2401C541.35 62.3201 541.35 53.3901 541.27 44.4701C541.22 38.3601 537.6 35.6901 531.71 37.4101C530.45 37.7801 529.24 38.3601 528.09 38.9901C525.01 40.6701 523.23 42.8201 523.42 46.8201C523.8 54.9301 523.53 63.0801 523.53 71.2101V73.6601H512.48C512.44 72.8301 512.38 72.0601 512.38 71.2901C512.38 63.0301 512.38 54.7601 512.38 46.5001C512.38 45.5101 512.35 44.5201 512.29 43.5301C511.94 38.4601 508.73 36.0601 503.78 37.1501C500.66 37.8401 498.01 39.3801 495.61 41.6801V41.6901Z" fill="#757693"/>
<path d="M295.4 18.2599C295.4 20.0799 295.4 21.6999 295.4 23.5399C292.97 22.8199 290.92 22.1199 288.82 21.5999C283.46 20.2599 278.03 19.4299 272.54 20.7099C267.94 21.7799 265.77 24.9199 266.29 29.3899C266.59 31.9399 268.05 33.8199 270.28 34.6699C273.6 35.9299 277.1 36.6799 280.5 37.7199C283.72 38.6999 287.03 39.5099 290.08 40.8799C295.12 43.1499 297.82 47.2799 298.4 52.7999C299.5 63.2999 294.37 70.8399 284.11 73.4799C274.83 75.8599 265.65 75.4099 256.59 72.2799C254.82 71.6699 254.08 70.7399 254.23 68.8099C254.41 66.4599 254.27 64.0799 254.27 61.5799C257.08 62.4499 259.62 63.3599 262.23 64.0099C267.35 65.2899 272.58 65.6699 277.76 64.6199C279.83 64.1999 281.94 63.2799 283.7 62.0999C287.43 59.5899 288.56 52.1099 282.23 49.7399C278.23 48.2399 273.96 47.4699 269.81 46.3799C265.63 45.2799 261.49 44.0599 258.42 40.7499C250.42 32.1199 254.56 16.4999 266.01 12.1499C272.88 9.53993 279.91 10.0299 286.94 11.3399C289.01 11.7299 291.03 12.4299 293.09 12.8999C294.84 13.2999 295.74 14.1899 295.41 16.0899C295.3 16.7299 295.39 17.4099 295.39 18.2699L295.4 18.2599Z" fill="#757693"/>
<path d="M79.0299 33.3102C76.2299 26.0902 73.48 19.0202 70.73 11.9402C70.71 11.8902 70.7499 11.8102 70.8299 11.4902C74.5599 11.4902 78.3499 11.4302 82.1399 11.5702C82.5999 11.5902 83.1899 12.5802 83.4299 13.2202C88.7699 27.6502 94.0599 42.0902 99.3699 56.5302C99.5399 57.0102 99.7399 57.4702 100.08 58.3302C101.47 54.4102 102.7 50.8402 104 47.3102C108.23 35.8602 112.5 24.4202 116.72 12.9702C117.12 11.8902 117.61 11.4402 118.83 11.4702C122.26 11.5602 125.7 11.5002 129.44 11.5002C128.82 13.1702 128.28 14.6802 127.7 16.1702C120.45 34.7402 113.18 53.3102 105.98 71.8902C105.42 73.3202 104.82 74.0002 103.17 73.8702C101 73.6902 98.8099 73.7302 96.6299 73.8702C95.2799 73.9502 94.6699 73.4802 94.1899 72.2302C89.4399 59.9102 84.6299 47.6202 79.8299 35.3202C79.5899 34.7102 79.3399 34.1002 79.0399 33.3402L79.0299 33.3102Z" fill="#FD8523"/>
<path d="M471.8 68.6302C471.8 71.2702 470.583 72.8836 468.15 73.4702C461.98 74.9402 455.77 75.5702 449.49 74.3302C439.91 72.4302 434.14 66.5702 432.81 56.9102C431.78 49.4102 432.54 42.1202 437.14 35.6902C444.14 25.9002 460.08 24.5802 468.04 33.2002C471.83 37.3102 472.92 42.4802 473.3 47.8302C473.45 49.9802 473.33 52.1502 473.33 54.5402H444.28C443.57 58.2502 446.16 62.5802 450.04 64.3802C453.84 66.1402 457.87 66.2602 461.9 65.6502C465.14 65.1702 468.34 64.3802 471.79 63.6802C471.79 65.3002 471.79 66.8702 471.79 68.6302M453.8 45.7602H461.77C461.51 39.5102 458.05 35.9502 453.01 36.3202C448.2 36.6702 444.25 41.0702 444.76 45.7602C447.62 45.7602 450.51 45.7602 453.79 45.7602H453.8Z" fill="#757693"/>
<path d="M321.1 68.23C315.42 55.07 309.79 42.04 303.99 28.61C308.08 28.61 311.74 28.56 315.4 28.68C315.83 28.7 316.38 29.64 316.63 30.26C320.21 39.01 323.74 47.78 327.29 56.54C327.5 57.07 327.74 57.59 328.13 58.49C329.23 55.63 330.16 53.11 331.16 50.62C333.88 43.81 336.64 37.01 339.34 30.19C339.78 29.08 340.33 28.52 341.64 28.55C345 28.64 348.37 28.58 352.05 28.58C351.74 29.39 351.54 29.99 351.29 30.57C342.18 51.55 333.04 72.52 323.97 93.51C323.38 94.87 322.69 95.42 321.2 95.36C318.31 95.24 315.41 95.33 312.2 95.33C312.68 94.13 313.02 93.23 313.4 92.34C315.98 86.25 318.49 80.13 321.22 74.11C322.14 72.07 322.46 70.28 321.12 68.23H321.1Z" fill="#757693"/>
<path d="M361.33 31.1301C365.53 27.9401 370.27 27.1901 375.17 27.5901C378.77 27.8901 382.32 28.7501 385.89 29.3601C387.13 29.5701 387.63 30.2601 387.59 31.5601C387.5 33.9301 387.57 36.3001 387.57 38.9801C386.07 38.5901 384.84 38.1301 383.57 37.9801C379.66 37.5201 375.74 36.9001 371.82 36.9001C369.04 36.9001 367.44 38.6601 367.2 40.7201C366.97 42.7301 368.23 44.3901 371.06 45.3201C373.94 46.2601 376.92 46.9201 379.83 47.7901C384.56 49.2101 388.09 51.8901 389.1 57.0701C390.51 64.3101 386.88 70.9401 379.93 73.3201C372.54 75.8501 365.1 75.4801 357.74 73.0801C357.19 72.9001 356.46 72.1901 356.43 71.7001C356.3 69.1401 356.37 66.5701 356.37 63.9201C359.46 64.5401 362.33 65.3301 365.25 65.6301C367.78 65.8901 370.4 65.7601 372.93 65.4401C374.29 65.2701 375.73 64.5501 376.83 63.7001C379.03 61.9901 378.86 58.9101 376.42 57.5501C374.54 56.5101 372.4 55.9301 370.34 55.2401C368.59 54.6501 366.76 54.2801 365.02 53.6601C355.79 50.3601 353.28 39.5401 360.05 32.3201C360.41 31.9401 360.82 31.6001 361.32 31.1501L361.33 31.1301Z" fill="#757693"/>
<path d="M412.83 61.5902C413.36 64.2402 415.13 65.3302 417.41 65.4002C419.64 65.4702 421.87 65.1502 424.11 64.9702C424.74 64.9202 425.37 64.7502 426.25 64.5902C426.25 67.5102 426.31 70.2102 426.19 72.9002C426.17 73.3102 425.42 73.9402 424.92 74.0502C420.36 75.0202 415.76 75.3902 411.17 74.3302C404.84 72.8702 401.64 68.8802 401.59 62.2902C401.53 54.9502 401.58 47.6202 401.58 40.2802C401.58 39.5602 401.58 38.8502 401.58 37.7902C399.25 37.7902 397.09 37.7302 394.94 37.8102C393.58 37.8602 393.03 37.4302 393.1 36.0202C393.19 34.1102 393.18 32.1902 393.1 30.2702C393.05 29.0102 393.47 28.4902 394.8 28.5402C396.96 28.6302 399.13 28.5602 401.51 28.5602V16.1602H412.7V28.4602H425.5V37.7602H412.8C412.8 45.8502 412.8 53.6302 412.83 61.5802V61.5902Z" fill="#757693"/>
<path d="M223.45 28.8602C223.53 43.8902 223.53 58.7602 223.53 73.7202H212.58V28.7002C216.17 28.7002 219.78 28.7002 223.46 28.8602H223.45Z" fill="#FD8523"/>
<path d="M147.69 64.29V73.69H136.65V28.73H147.69V64.28V64.29Z" fill="#FD8523"/>
<path d="M136.82 18.4098C136.53 16.8898 136.34 15.4198 136.3 13.9298C136.24 11.4998 136.28 9.06977 136.28 6.50977H147.82V18.4398C144.22 18.4398 140.6 18.4398 136.82 18.3998V18.4098Z" fill="#FD8523"/>
<path d="M223.84 10.33V18.34H212.34V6.54004H223.84V10.34V10.33Z" fill="#FD8523"/>
<path d="M34.4499 18.7302C36.9199 21.8202 39.2999 24.8102 41.6199 27.7102C40.8299 29.8202 39.4399 30.4102 37.3199 30.2602C34.1799 30.0502 31.0199 30.2102 27.6499 30.2102C28.5299 25.4602 29.3099 20.9302 30.2299 16.4302C30.4699 15.2802 31.3599 15.0002 32.2399 16.0002C32.9799 16.8402 33.6499 17.7402 34.4399 18.7202L34.4499 18.7302Z" fill="#FD8523"/>
</g>
<defs>
<clipPath id="clip0_113_181">
<rect width="595.28" height="96.43" fill="white"/>
</clipPath>
</defs>
</svg>
