<?xml version="1.0" encoding="UTF-8"?>
<svg id="Layer_1" data-name="Layer 1" xmlns="http://www.w3.org/2000/svg" viewBox="0 0 595.28 96.43">
  <defs>
    <style>
      .cls-1 {
        fill: #fff;
      }
    </style>
  </defs>
  <path class="cls-1" d="M62.91,0c.19,27.04.19,54.08.19,81.39-21,0-41.86,0-62.91-.02C0,54.27,0,27.18,0,0h62.91M20.32,49.55c1.43,2.66,2.95,3.09,5.64,1.65.32-.17.76-.38,1.07-.29,5.12,1.47,10.24,2.98,15.36,4.48-.05,1.04-.08,1.89-.12,2.71-.24.13-.41.24-.59.3-9.57,3.26-19.13,6.53-28.72,9.71-.58.19-1.47-.12-2.06-.47-1.64-.97-3.47-.99-4.78.22-1.35,1.24-1.77,2.78-1.03,4.5.73,1.71,2.08,2.52,3.95,2.35,1.77-.16,3.13-1.44,3.32-3.37.1-1.01.44-1.48,1.39-1.8,9.27-3.1,18.53-6.24,27.78-9.4.94-.32,1.52-.28,2.17.59,1.31,1.73,3.2,2.51,5.33,2.68,3.57.28,6.93-2.1,7.6-5.34.6-2.93-1.3-6.01-4.48-7.05-3-.98-5.82-.53-8.04,1.79-.91.96-1.66.96-2.75.63-3.92-1.19-7.85-2.35-11.79-3.45-1.39-.39-2.65-.66-2.63-2.55,0-.53-.77-1.03-1.05-1.61-.33-.68-.82-1.48-.71-2.14.53-3.46,1.28-6.88,1.84-10.34.2-1.24.75-1.59,1.96-1.56,3.04.08,6.08.06,9.12,0,1.19-.02,2,.13,2.62,1.42,1,2.06,3.64,2.8,5.86,1.98,2-.75,3.22-2.76,2.82-4.68-.44-2.15-2.34-3.44-4.86-3.57-.78-.04-1.77-.45-2.26-1.03-2.76-3.29-5.38-6.7-8.1-10.02-.8-.98-1.23-1.74-.62-3.12.74-1.68-.31-3.67-1.94-4.5-1.65-.85-3.67-.37-4.79,1.14-1.08,1.45-1.22,3.92.23,4.88,1.88,1.24,1.44,2.64,1.13,4.26-.76,3.87-1.46,7.74-2.2,11.66-3.33,0-6.43.04-9.54-.04-.52-.01-1.15-.48-1.52-.92-1.16-1.37-2.55-1.92-4.23-1.24-1.65.67-2.43,2.05-2.25,3.81.19,1.74,1.19,2.95,2.98,3.25,1.79.3,3.02-.55,3.87-2.11.24-.45.72-1.08,1.11-1.09,3.01-.09,6.03-.05,9.05-.05.03.45.09.65.06.83-.66,3.64-1.28,7.29-2.05,10.91-.15.69-.75,1.44-1.36,1.85-1.42.95-2.11,2.14-1.79,4.15Z"/>
  <path class="cls-1" d="M165.67,96.43c-.33-.25-.42-.65-.62-.71-1.56-.49-3.85-.46-4.54-1.49-.84-1.26-.34-3.41-.39-5.17-.03-1.17,0-2.34,0-3.09,5.06.47,9.94,1.16,14.84,1.29,2.5.07,5.14-.56,7.52-1.41,4.1-1.46,6.39-4.55,6.51-9.02.05-1.95,0-3.89,0-6.07-.56.32-.95.51-1.32.75-12.86,8.21-27.79,1.21-29.71-13.94-.79-6.26-.48-12.38,2.08-18.26,3.89-8.95,13.3-13.84,21.97-11.01,2.84.93,5.32,2.97,7.98,4.52.13-1.04.32-2.55.51-4.15h9.66v2.28c0,14.81,0,29.61,0,44.42,0,10.84-5.19,17.44-15.74,20.08-.74.18-1.43.52-2,.9-5.42.11-10.98.11-16.73.11M172.04,62.67c1.39.96,2.66,2.25,4.19,2.82,3.84,1.44,9.69-.31,12.29-3.5.44-.53.58-1.43.59-2.17.05-4.96-.24-9.93.12-14.86.23-3.2-1.18-4.94-3.6-6.37-.74-.43-1.49-.86-2.29-1.17-4.48-1.77-9.15-.45-11.6,3.25-3.66,5.53-3.6,16.17.29,21.99Z"/>
  <path class="cls-1" d="M595.28,64.5c-.25.31-.64.38-.72.57-2.31,5.93-7.17,8.38-12.99,9.39-5.89,1.02-11.71.54-17.44-1.18-1.35-.41-1.91-1.08-1.83-2.53.12-2.23.03-4.48.03-7.03,1.02.26,1.82.43,2.6.66,4.55,1.37,9.18,1.95,13.88,1.09,1.32-.24,2.69-.81,3.79-1.58,2.42-1.71,2.32-4.9-.21-6.42-1.45-.87-3.13-1.37-4.75-1.9-2.13-.7-4.33-1.18-6.46-1.9-8.85-3.02-11.75-12.6-6.1-20.17,3.1-4.15,7.56-5.6,12.47-5.92,4.92-.32,9.74.42,14.48,1.81,1.2.35,1.7.94,1.65,2.23-.1,2.36-.03,4.73-.03,7.36-1.53-.39-2.77-.85-4.05-1-3.91-.46-7.82-.87-11.75-1.14-.84-.06-1.81.41-2.59.86-2.66,1.52-2.77,5.05-.16,6.67,1.16.72,2.52,1.14,3.83,1.57,1.25.41,2.55.68,3.84.96,5.24,1.11,9.71,3.32,12.36,8.33.14,2.99.14,6.04.14,9.27Z"/>
  <path class="cls-1" d="M495.61,41.69c-.43,1.07-1.02,2.02-1.03,2.98-.07,8.86-.04,17.72-.04,26.58v2.44h-10.86V28.58c2.74,0,5.37-.05,8,.05.42.02,1.05.68,1.17,1.15.38,1.46.57,2.97.9,4.89,4.01-4.59,8.76-7.09,14.61-7.15,6.03-.06,10.75,2.29,13.64,7.8,1.39-1.35,2.55-2.74,3.95-3.79,5.79-4.36,12.16-5.43,18.84-2.44,4.94,2.21,7.38,6.52,7.49,11.74.24,10.77.09,21.55.1,32.32,0,.12-.09.24-.21.5h-10.79c0-.86,0-1.64,0-2.41-.03-8.92-.03-17.85-.11-26.77-.05-6.11-3.67-8.78-9.56-7.06-1.26.37-2.47.95-3.62,1.58-3.08,1.68-4.86,3.83-4.67,7.83.38,8.11.11,16.26.11,24.39v2.45h-11.05c-.04-.83-.1-1.6-.1-2.37,0-8.26,0-16.53,0-24.79,0-.99-.03-1.98-.09-2.97-.35-5.07-3.56-7.47-8.51-6.38-3.12.69-5.77,2.23-8.17,4.53Z"/>
  <path class="cls-1" d="M295.4,18.26c0,1.82,0,3.44,0,5.28-2.43-.72-4.48-1.42-6.58-1.94-5.36-1.34-10.79-2.17-16.28-.89-4.6,1.07-6.77,4.21-6.25,8.68.3,2.55,1.76,4.43,3.99,5.28,3.32,1.26,6.82,2.01,10.22,3.05,3.22.98,6.53,1.79,9.58,3.16,5.04,2.27,7.74,6.4,8.32,11.92,1.1,10.5-4.03,18.04-14.29,20.68-9.28,2.38-18.46,1.93-27.52-1.2-1.77-.61-2.51-1.54-2.36-3.47.18-2.35.04-4.73.04-7.23,2.81.87,5.35,1.78,7.96,2.43,5.12,1.28,10.35,1.66,15.53.61,2.07-.42,4.18-1.34,5.94-2.52,3.73-2.51,4.86-9.99-1.47-12.36-4-1.5-8.27-2.27-12.42-3.36-4.18-1.1-8.32-2.32-11.39-5.63-8-8.63-3.86-24.25,7.59-28.6,6.87-2.61,13.9-2.12,20.93-.81,2.07.39,4.09,1.09,6.15,1.56,1.75.4,2.65,1.29,2.32,3.19-.11.64-.02,1.32-.02,2.18Z"/>
  <path class="cls-1" d="M79.03,33.31c-2.8-7.22-5.55-14.29-8.3-21.37-.02-.05.02-.13.1-.45,3.73,0,7.52-.06,11.31.08.46.02,1.05,1.01,1.29,1.65,5.34,14.43,10.63,28.87,15.94,43.31.17.48.37.94.71,1.8,1.39-3.92,2.62-7.49,3.92-11.02,4.23-11.45,8.5-22.89,12.72-34.34.4-1.08.89-1.53,2.11-1.5,3.43.09,6.87.03,10.61.03-.62,1.67-1.16,3.18-1.74,4.67-7.25,18.57-14.52,37.14-21.72,55.72-.56,1.43-1.16,2.11-2.81,1.98-2.17-.18-4.36-.14-6.54,0-1.35.08-1.96-.39-2.44-1.64-4.75-12.32-9.56-24.61-14.36-36.91-.24-.61-.49-1.22-.79-1.98Z"/>
  <path class="cls-1" d="M471.8,68.63q0,3.96-3.65,4.84c-6.17,1.47-12.38,2.1-18.66.86-9.58-1.9-15.35-7.76-16.68-17.42-1.03-7.5-.27-14.79,4.33-21.22,7-9.79,22.94-11.11,30.9-2.49,3.79,4.11,4.88,9.28,5.26,14.63.15,2.15.03,4.32.03,6.71h-29.05c-.71,3.71,1.88,8.04,5.76,9.84,3.8,1.76,7.83,1.88,11.86,1.27,3.24-.48,6.44-1.27,9.89-1.97,0,1.62,0,3.19,0,4.95M453.8,45.76h7.97c-.26-6.25-3.72-9.81-8.76-9.44-4.81.35-8.76,4.75-8.25,9.44,2.86,0,5.75,0,9.03,0Z"/>
  <path class="cls-1" d="M321.1,68.23c-5.68-13.16-11.31-26.19-17.11-39.62,4.09,0,7.75-.05,11.41.07.43.02.98.96,1.23,1.58,3.58,8.75,7.11,17.52,10.66,26.28.21.53.45,1.05.84,1.95,1.1-2.86,2.03-5.38,3.03-7.87,2.72-6.81,5.48-13.61,8.18-20.43.44-1.11.99-1.67,2.3-1.64,3.36.09,6.73.03,10.41.03-.31.81-.51,1.41-.76,1.99-9.11,20.98-18.25,41.95-27.32,62.94-.59,1.36-1.28,1.91-2.77,1.85-2.89-.12-5.79-.03-9-.03.48-1.2.82-2.1,1.2-2.99,2.58-6.09,5.09-12.21,7.82-18.23.92-2.04,1.24-3.83-.1-5.88Z"/>
  <path class="cls-1" d="M361.33,31.13c4.2-3.19,8.94-3.94,13.84-3.54,3.6.3,7.15,1.16,10.72,1.77,1.24.21,1.74.9,1.7,2.2-.09,2.37-.02,4.74-.02,7.42-1.5-.39-2.73-.85-4-1-3.91-.46-7.83-1.08-11.75-1.08-2.78,0-4.38,1.76-4.62,3.82-.23,2.01,1.03,3.67,3.86,4.6,2.88.94,5.86,1.6,8.77,2.47,4.73,1.42,8.26,4.1,9.27,9.28,1.41,7.24-2.22,13.87-9.17,16.25-7.39,2.53-14.83,2.16-22.19-.24-.55-.18-1.28-.89-1.31-1.38-.13-2.56-.06-5.13-.06-7.78,3.09.62,5.96,1.41,8.88,1.71,2.53.26,5.15.13,7.68-.19,1.36-.17,2.8-.89,3.9-1.74,2.2-1.71,2.03-4.79-.41-6.15-1.88-1.04-4.02-1.62-6.08-2.31-1.75-.59-3.58-.96-5.32-1.58-9.23-3.3-11.74-14.12-4.97-21.34.36-.38.77-.72,1.27-1.17Z"/>
  <path class="cls-1" d="M412.83,61.59c.53,2.65,2.3,3.74,4.58,3.81,2.23.07,4.46-.25,6.7-.43.63-.05,1.26-.22,2.14-.38,0,2.92.06,5.62-.06,8.31-.02.41-.77,1.04-1.27,1.15-4.56.97-9.16,1.34-13.75.28-6.33-1.46-9.53-5.45-9.58-12.04-.06-7.34-.01-14.67-.01-22.01,0-.72,0-1.43,0-2.49-2.33,0-4.49-.06-6.64.02-1.36.05-1.91-.38-1.84-1.79.09-1.91.08-3.83,0-5.75-.05-1.26.37-1.78,1.7-1.73,2.16.09,4.33.02,6.71.02v-12.4h11.19v12.3h12.8v9.3h-12.7c0,8.09,0,15.87.03,23.82Z"/>
  <path class="cls-1" d="M223.45,28.86c.08,15.03.08,29.9.08,44.86h-10.95V28.7c3.59,0,7.2,0,10.88.16Z"/>
  <path class="cls-1" d="M147.69,64.29v9.4h-11.04V28.73h11.04v35.55Z"/>
  <path class="cls-1" d="M136.82,18.41c-.29-1.52-.48-2.99-.52-4.48-.06-2.43-.02-4.86-.02-7.42h11.54v11.93c-3.6,0-7.22,0-11-.04Z"/>
  <path class="cls-1" d="M223.84,10.33v8.01h-11.5V6.54h11.5v3.8Z"/>
  <path class="cls-1" d="M34.45,18.73c2.47,3.09,4.85,6.08,7.17,8.98-.79,2.11-2.18,2.7-4.3,2.55-3.14-.21-6.3-.05-9.67-.05.88-4.75,1.66-9.28,2.58-13.78.24-1.15,1.13-1.43,2.01-.43.74.84,1.41,1.74,2.2,2.72Z"/>
</svg>